<svg width="32" height="32" viewBox="0 0 32 32" fill="none" xmlns="http://www.w3.org/2000/svg">
<rect width="32" height="32" rx="3" fill="url(#paint0_linear_1_2)"/>
<path d="M11.3642 28.9101L22.2881 26.0527C22.3754 26.0299 22.4526 25.9787 22.5076 25.9072C22.5627 25.8357 22.5924 25.7479 22.5921 25.6577L22.5551 14.1256C22.5549 14.0623 22.54 14 22.5115 13.9435C22.483 13.8871 22.4417 13.838 22.391 13.8003C22.3402 13.7625 22.2814 13.7372 22.2191 13.7261C22.1568 13.7151 22.0928 13.7188 22.0322 13.7368L18.9975 14.6396C18.7136 14.7241 18.4374 14.4866 18.4786 14.1932L19.1137 9.65646C19.1564 9.35113 18.8573 9.11106 18.5685 9.21891L16.7027 9.91537C16.4135 10.0232 16.1141 9.78245 16.1576 9.47682L17.1721 2.34969C17.2356 1.90384 16.6352 1.70042 16.4146 2.09294L16.2672 2.35515L8.37819 20.9023C8.246 21.2128 8.52778 21.5399 8.85436 21.4554L11.9857 20.6459C12.2799 20.5699 12.5506 20.8315 12.4848 21.128L10.8638 28.4282C10.7979 28.7255 11.0697 28.9871 11.3642 28.9101Z" fill="url(#paint1_linear_1_2)"/>
<defs>
<linearGradient id="paint0_linear_1_2" x1="16" y1="0" x2="16" y2="32" gradientUnits="userSpaceOnUse">
<stop stop-color="#3A30B5"/>
<stop offset="1" stop-color="#15414F"/>
</linearGradient>
<linearGradient id="paint1_linear_1_2" x1="14.4781" y1="2.02588" x2="16.1382" y2="28.62" gradientUnits="userSpaceOnUse">
<stop offset="0.455017" stop-color="#FFEA83"/>
<stop offset="1" stop-color="#FFA800"/>
</linearGradient>
</defs>
</svg>
